<svg width="50" height="50" viewBox="0 0 50 50" fill="none" xmlns="http://www.w3.org/2000/svg">
<path d="M25 0C11.2154 0 0 11.2144 0 25C0 38.7856 11.2154 50 25 50C38.7846 50 50 38.7856 50 25C50 11.2144 38.7846 0 25 0ZM37.0192 26.9231H26.9231V37.5C26.9231 38.5615 26.0615 39.4231 25 39.4231C23.9385 39.4231 23.0769 38.5615 23.0769 37.5V26.9231H12.9808C11.9192 26.9231 11.0577 26.0615 11.0577 25C11.0577 23.9385 11.9192 23.0769 12.9808 23.0769H23.0769V13.4615C23.0769 12.4 23.9385 11.5385 25 11.5385C26.0615 11.5385 26.9231 12.4 26.9231 13.4615V23.0769H37.0192C38.0808 23.0769 38.9423 23.9385 38.9423 25C38.9423 26.0615 38.0808 26.9231 37.0192 26.9231Z" fill="#EB5757"/>
</svg>
